<svg width="20" height="20" viewBox="0 0 20 20" fill="none" xmlns="http://www.w3.org/2000/svg">
<path d="M17.5 10C17.5 5.85938 14.1406 2.5 10 2.5C5.85938 2.5 2.5 5.85938 2.5 10C2.5 14.1406 5.85938 17.5 10 17.5C14.1406 17.5 17.5 14.1406 17.5 10Z" stroke="#EAF0F5" stroke-width="1.25" stroke-miterlimit="10"/>
<path d="M13.3414 7.72855L12.8973 7.21176C12.2899 6.57582 11.4915 6.15556 10.6234 6.01482C9.7554 5.87408 8.86513 6.02057 8.08794 6.43203C7.31075 6.84348 6.68913 7.4974 6.31754 8.29442C5.94595 9.09144 5.84471 9.98798 6.0292 10.8478C6.21368 11.7076 6.67382 12.4837 7.33968 13.0581C8.00554 13.6325 8.84071 13.9739 9.71829 14.0302C10.5959 14.0866 11.4679 13.855 12.2018 13.3705C12.9357 12.8861 13.4913 12.1753 13.7844 11.3461" stroke="#EAF0F5" stroke-width="1.25" stroke-miterlimit="10" stroke-linecap="round"/>
<path d="M14.3485 6.32819C14.3048 6.32837 14.2615 6.33723 14.2213 6.35427C14.1811 6.3713 14.1446 6.39616 14.1141 6.4274L11.7883 8.75319C11.7411 8.8002 11.7089 8.86018 11.6959 8.9255C11.6828 8.99083 11.6894 9.05856 11.7149 9.12012C11.7404 9.18167 11.7836 9.23427 11.839 9.27124C11.8944 9.30822 11.9596 9.3279 12.0262 9.32779H14.352C14.4413 9.32779 14.5269 9.29232 14.5901 9.22917C14.6532 9.16602 14.6887 9.08038 14.6887 8.99108V6.66451C14.6888 6.62005 14.6801 6.57601 14.6631 6.53493C14.646 6.49386 14.621 6.45656 14.5895 6.42521C14.558 6.39387 14.5205 6.36908 14.4794 6.35229C14.4382 6.3355 14.3941 6.32704 14.3496 6.3274L14.3485 6.32819Z" fill="#EAF0F5"/>
</svg>
