<svg width="20" height="20" viewBox="0 0 20 20" fill="none" xmlns="http://www.w3.org/2000/svg">
<path d="M7.495 1.77501C7.46447 1.61102 7.37136 1.46535 7.23536 1.36877C7.09936 1.2722 6.93114 1.2323 6.76626 1.25751C6.61892 1.28007 6.48497 1.3559 6.38982 1.47064C6.29467 1.58538 6.24492 1.73103 6.25 1.88001C4.735 2.25376 3.7725 3.00501 3.20375 3.93001C2.63375 4.85501 2.5 5.88376 2.5 6.71501V7.11001L1.6075 8.34626C1.46111 8.54892 1.35672 8.77882 1.30048 9.02243C1.24424 9.26603 1.23729 9.51842 1.28003 9.76476C1.32278 10.0111 1.41435 10.2464 1.54937 10.4568C1.6844 10.6672 1.86014 10.8485 2.06625 10.99L9.47875 16.0788C10.8327 17.0081 12.4365 17.5054 14.0788 17.505H15.9525C16.6942 17.5043 17.4054 17.2094 17.9299 16.6849C18.4544 16.1604 18.7493 15.4492 18.75 14.7075C18.75 13.115 17.4125 12.0175 16.2275 11.495C15.8263 11.3175 15.4875 11.075 15.265 10.7475L12.6425 6.23501C12.7985 6.20269 12.9356 6.1105 13.0244 5.97823C13.1133 5.84595 13.1467 5.68414 13.1175 5.5275C13.0873 5.36337 12.9942 5.2175 12.8581 5.12087C12.7221 5.02424 12.5537 4.98447 12.3888 5.01C10.0513 5.38 7.87625 3.88001 7.495 1.77501ZM11.23 6.29125L14.195 11.3938L14.215 11.425C14.6088 12.0188 15.1763 12.3963 15.7225 12.6375C16.3438 12.9125 16.8588 13.3013 17.1725 13.75H14.05C13.1642 13.7495 12.2994 13.4801 11.57 12.9775L9.57751 11.6063L10.5725 11.0988C10.7234 11.0216 10.857 10.9146 10.9653 10.7842C11.0735 10.6538 11.1541 10.5027 11.2022 10.3402C11.2502 10.1777 11.2647 10.0071 11.2448 9.83883C11.2249 9.67054 11.1709 9.50806 11.0863 9.36125L10.375 8.12501C10.2147 7.84793 9.95421 7.64291 9.64722 7.55221C9.34024 7.46151 9.01015 7.49204 8.72501 7.63751L5.9 9.07501L4.7025 8.25001L6.14625 7.59001C6.30451 7.51757 6.4459 7.41288 6.56136 7.28265C6.67682 7.15241 6.76382 6.9995 6.81677 6.8337C6.86972 6.6679 6.88746 6.49288 6.86886 6.31982C6.85026 6.14677 6.79573 5.97951 6.70876 5.82876L5.3875 3.53751C5.769 3.33119 6.17696 3.17811 6.60001 3.08251C7.39126 4.88876 9.20376 6.12126 11.23 6.29125ZM8.405 10.8L7.07126 9.88126L9.29125 8.75001L10.0038 9.98501L8.405 10.8ZM4.2675 4.58501C4.31334 4.51001 4.36417 4.43626 4.42 4.36376L5.625 6.45376L3.75 7.31251V6.71501C3.75 6.00001 3.8675 5.23501 4.2675 4.58501ZM2.62125 9.07751L2.97875 8.58251L10.8613 14.0075C11.7993 14.6531 12.9113 14.9987 14.05 14.9988H17.4725C17.4043 15.352 17.2154 15.6706 16.938 15.8998C16.6607 16.129 16.3123 16.2546 15.9525 16.255H14.0775C12.6883 16.2553 11.3317 15.8347 10.1863 15.0488L2.775 9.95876C2.70633 9.91156 2.64779 9.8511 2.60282 9.78095C2.55785 9.71079 2.52737 9.63236 2.51316 9.55025C2.49895 9.46814 2.50131 9.38402 2.52008 9.30283C2.53886 9.22165 2.57368 9.14504 2.6225 9.07751" fill="#EAF0F5"/>
</svg>
