<svg xmlns="http://www.w3.org/2000/svg" xmlns:xlink="http://www.w3.org/1999/xlink" viewBox="132.43899536132812 32.36600112915039 130.3909912109375 141.19100952148438" width="184.70154955736967" height="200"><path d="M 137.439,77.275 C 139.992,75.218 140.032,75.271 142.624,73.267" stroke-width="5.387" stroke="black" fill="none" stroke-linecap="round"></path><path d="M 142.624,73.267 C 148.695,69.013 148.577,68.856 154.609,64.551" stroke-width="3.608" stroke="black" fill="none" stroke-linecap="round"></path><path d="M 154.609,64.551 C 161.513,59.256 161.553,59.312 168.340,53.864" stroke-width="2.916" stroke="black" fill="none" stroke-linecap="round"></path><path d="M 168.340,53.864 C 171.691,51.106 171.746,51.174 175.074,48.387" stroke-width="3.392" stroke="black" fill="none" stroke-linecap="round"></path><path d="M 175.074,48.387 C 179.899,44.333 179.980,44.446 184.919,40.545" stroke-width="3.218" stroke="black" fill="none" stroke-linecap="round"></path><path d="M 184.919,40.545 C 188.865,36.933 187.202,38.822 189.680,37.366" stroke-width="4.168" stroke="black" fill="none" stroke-linecap="round"></path><path d="M 189.680,37.366 C 189.203,39.942 190.407,37.750 188.003,42.179" stroke-width="4.624" stroke="black" fill="none" stroke-linecap="round"></path><path d="M 188.003,42.179 C 183.919,48.879 184.307,49.065 179.888,55.610" stroke-width="3.212" stroke="black" fill="none" stroke-linecap="round"></path><path d="M 179.888,55.610 C 176.768,60.668 176.835,60.707 173.835,65.835" stroke-width="3.280" stroke="black" fill="none" stroke-linecap="round"></path><path d="M 173.835,65.835 C 166.957,78.076 166.905,78.045 160.162,90.363" stroke-width="2.373" stroke="black" fill="none" stroke-linecap="round"></path><path d="M 160.162,90.363 C 156.864,95.971 157.019,96.048 153.959,101.779" stroke-width="2.788" stroke="black" fill="none" stroke-linecap="round"></path><path d="M 153.959,101.779 C 149.579,110.703 149.516,110.662 145.468,119.744" stroke-width="2.587" stroke="black" fill="none" stroke-linecap="round"></path><path d="M 145.468,119.744 C 144.050,122.676 144.129,122.687 143.059,125.746" stroke-width="3.475" stroke="black" fill="none" stroke-linecap="round"></path><path d="M 143.059,125.746 C 140.414,131.092 142.014,128.984 141.395,132.360" stroke-width="3.790" stroke="black" fill="none" stroke-linecap="round"></path><path d="M 141.395,132.360 C 144.560,132.127 142.201,133.403 146.633,130.368" stroke-width="4.585" stroke="black" fill="none" stroke-linecap="round"></path><path d="M 146.633,130.368 C 149.965,126.147 150.609,126.996 153.493,122.099" stroke-width="3.842" stroke="black" fill="none" stroke-linecap="round"></path><path d="M 153.493,122.099 C 155.787,119.725 155.661,119.613 158.025,117.300" stroke-width="3.987" stroke="black" fill="none" stroke-linecap="round"></path><path d="M 158.025,117.300 C 162.362,112.604 162.360,112.603 166.639,107.856" stroke-width="3.343" stroke="black" fill="none" stroke-linecap="round"></path><path d="M 166.639,107.856 C 168.325,105.629 168.495,105.795 170.291,103.680" stroke-width="3.925" stroke="black" fill="none" stroke-linecap="round"></path><path d="M 170.291,103.680 C 175.014,97.046 173.191,100.806 176.372,98.210" stroke-width="3.781" stroke="black" fill="none" stroke-linecap="round"></path><path d="M 176.372,98.210 C 177.623,103.885 178.182,99.761 176.628,109.109" stroke-width="4.534" stroke="black" fill="none" stroke-linecap="round"></path><path d="M 176.628,109.109 C 171.524,118.400 175.718,113.894 172.561,118.227" stroke-width="3.906" stroke="black" fill="none" stroke-linecap="round"></path><path d="M 172.561,118.227 C 177.143,113.369 173.948,117.997 181.476,108.303" stroke-width="4.505" stroke="black" fill="none" stroke-linecap="round"></path><path d="M 181.476,108.303 C 185.593,102.031 183.797,105.589 185.868,102.667" stroke-width="4.587" stroke="black" fill="none" stroke-linecap="round"></path><path d="M 185.868,102.667 C 184.525,107.029 186.219,103.476 182.728,111.192" stroke-width="4.441" stroke="black" fill="none" stroke-linecap="round"></path><path d="M 182.728,111.192 C 179.333,117.279 181.246,114.624 179.310,117.858" stroke-width="4.522" stroke="black" fill="none" stroke-linecap="round"></path><path d="M 179.310,117.858 C 180.865,115.453 179.293,118.298 182.649,113.230" stroke-width="4.710" stroke="black" fill="none" stroke-linecap="round"></path><path d="M 182.649,113.230 C 185.659,107.761 184.781,110.573 187.142,108.099" stroke-width="4.640" stroke="black" fill="none" stroke-linecap="round"></path><path d="M 187.142,108.099 C 187.046,114.106 188.576,108.426 188.483,114.559" stroke-width="4.957" stroke="black" fill="none" stroke-linecap="round"></path><path d="M 188.483,114.559 C 191.495,109.514 189.867,114.995 192.785,109.877" stroke-width="5.068" stroke="black" fill="none" stroke-linecap="round"></path><path d="M 192.785,109.877 C 192.482,116.070 194.034,110.228 193.561,115.987" stroke-width="5.121" stroke="black" fill="none" stroke-linecap="round"></path><path d="M 193.561,115.987 C 196.605,109.201 194.901,115.884 197.622,109.506" stroke-width="5.065" stroke="black" fill="none" stroke-linecap="round"></path><path d="M 197.622,109.506 C 198.096,113.413 198.647,109.812 197.646,117.209" stroke-width="5.056" stroke="black" fill="none" stroke-linecap="round"></path><path d="M 197.646,117.209 C 196.694,120.819 197.210,120.887 195.850,124.454" stroke-width="4.194" stroke="black" fill="none" stroke-linecap="round"></path><path d="M 195.850,124.454 C 193.642,131.170 195.113,127.630 194.484,130.830" stroke-width="4.518" stroke="black" fill="none" stroke-linecap="round"></path><path d="M 194.484,130.830 C 197.521,126.939 195.751,130.319 200.068,122.753" stroke-width="4.634" stroke="black" fill="none" stroke-linecap="round"></path><path d="M 200.068,122.753 C 201.768,119.100 202.153,119.324 203.748,115.601" stroke-width="3.972" stroke="black" fill="none" stroke-linecap="round"></path><path d="M 203.748,115.601 C 208.766,106.766 208.750,106.765 214.033,98.084" stroke-width="2.794" stroke="black" fill="none" stroke-linecap="round"></path><path d="M 214.033,98.084 C 216.871,93.464 216.843,93.452 219.902,88.972" stroke-width="3.163" stroke="black" fill="none" stroke-linecap="round"></path><path d="M 219.902,88.972 C 225.594,80.802 225.472,80.720 231.234,72.596" stroke-width="2.739" stroke="black" fill="none" stroke-linecap="round"></path><path d="M 231.234,72.596 C 233.464,69.012 233.621,69.125 235.956,65.618" stroke-width="3.339" stroke="black" fill="none" stroke-linecap="round"></path><path d="M 235.956,65.618 C 239.633,57.476 239.189,61.216 242.685,57.005" stroke-width="3.341" stroke="black" fill="none" stroke-linecap="round"></path><path d="M 242.685,57.005 C 246.664,60.292 244.908,56.662 246.507,63.989" stroke-width="4.353" stroke="black" fill="none" stroke-linecap="round"></path><path d="M 246.507,63.989 C 244.346,71.713 246.189,71.428 241.736,79.278" stroke-width="3.145" stroke="black" fill="none" stroke-linecap="round"></path><path d="M 241.736,79.278 C 239.896,84.277 240.001,84.306 237.816,89.175" stroke-width="3.359" stroke="black" fill="none" stroke-linecap="round"></path><path d="M 237.816,89.175 C 233.122,100.749 232.939,100.656 227.820,112.037" stroke-width="2.523" stroke="black" fill="none" stroke-linecap="round"></path><path d="M 227.820,112.037 C 222.376,123.200 222.544,123.271 216.660,134.219" stroke-width="2.463" stroke="black" fill="none" stroke-linecap="round"></path><path d="M 216.660,134.219 C 214.149,139.184 214.103,139.148 211.275,143.934" stroke-width="2.955" stroke="black" fill="none" stroke-linecap="round"></path><path d="M 211.275,143.934 C 206.340,151.940 206.410,151.972 201.183,159.795" stroke-width="2.687" stroke="black" fill="none" stroke-linecap="round"></path><path d="M 201.183,159.795 C 199.729,163.007 199.367,162.562 197.328,165.178" stroke-width="3.477" stroke="black" fill="none" stroke-linecap="round"></path><path d="M 197.328,165.178 C 191.576,170.419 194.883,167.388 191.491,168.557" stroke-width="4.220" stroke="black" fill="none" stroke-linecap="round"></path><path d="M 191.491,168.557 C 193.492,159.870 191.269,163.687 196.715,151.713" stroke-width="3.816" stroke="black" fill="none" stroke-linecap="round"></path><path d="M 196.715,151.713 C 198.784,147.460 198.435,147.362 201.376,143.541" stroke-width="3.620" stroke="black" fill="none" stroke-linecap="round"></path><path d="M 201.376,143.541 C 206.642,135.932 206.475,135.835 212.098,128.464" stroke-width="2.847" stroke="black" fill="none" stroke-linecap="round"></path><path d="M 212.098,128.464 C 213.857,126.054 213.855,126.060 215.801,123.799" stroke-width="3.621" stroke="black" fill="none" stroke-linecap="round"></path><path d="M 215.801,123.799 C 219.901,119.139 219.852,119.101 224.088,114.560" stroke-width="3.354" stroke="black" fill="none" stroke-linecap="round"></path><path d="M 224.088,114.560 C 225.881,112.595 225.881,112.598 227.762,110.717" stroke-width="3.956" stroke="black" fill="none" stroke-linecap="round"></path><path d="M 227.762,110.717 C 231.563,104.711 230.512,107.972 233.349,105.314" stroke-width="3.835" stroke="black" fill="none" stroke-linecap="round"></path><path d="M 233.349,105.314 C 235.024,109.254 235.195,105.937 235.026,113.170" stroke-width="4.581" stroke="black" fill="none" stroke-linecap="round"></path><path d="M 235.026,113.170 C 232.017,119.855 235.028,116.585 233.359,119.975" stroke-width="4.091" stroke="black" fill="none" stroke-linecap="round"></path><path d="M 233.359,119.975 C 237.759,117.141 235.347,120.155 241.685,113.770" stroke-width="4.607" stroke="black" fill="none" stroke-linecap="round"></path><path d="M 241.685,113.770 C 245.555,108.329 244.539,111.318 246.919,108.329" stroke-width="4.604" stroke="black" fill="none" stroke-linecap="round"></path><path d="M 246.919,108.329 C 245.254,113.050 247.906,108.328 246.386,113.768" stroke-width="4.743" stroke="black" fill="none" stroke-linecap="round"></path><path d="M 246.386,113.768 C 249.873,110.436 247.576,114.522 251.562,111.272" stroke-width="5.096" stroke="black" fill="none" stroke-linecap="round"></path><path d="M 251.562,111.272 C 251.754,116.418 253.414,112.189 253.468,117.275" stroke-width="5.009" stroke="black" fill="none" stroke-linecap="round"></path><path d="M 253.468,117.275 C 255.607,114.259 254.889,117.986 257.830,114.407" stroke-width="5.150" stroke="black" fill="none" stroke-linecap="round"></path></svg>